<?xml version="1.0" encoding="UTF-8"?>
<svg xmlns="http://www.w3.org/2000/svg" xmlns:xlink="http://www.w3.org/1999/xlink" width="192px" height="192px" viewBox="0 0 192 192" version="1.1">
<g id="surface1">
<path style=" stroke:none;fill-rule:nonzero;fill:rgb(0%,100%,97.647059%);fill-opacity:1;" d="M 60 0 L 132 0 C 165.136719 0 192 26.863281 192 60 L 192 132 C 192 165.136719 165.136719 192 132 192 L 60 192 C 26.863281 192 0 165.136719 0 132 L 0 60 C 0 26.863281 26.863281 0 60 0 Z M 60 0 "/>
<path style=" stroke:none;fill-rule:nonzero;fill:rgb(6.666667%,10.980392%,20.784314%);fill-opacity:1;" d="M 140.820312 108.035156 C 140.820312 108.035156 129.375 96.453125 88.441406 108.035156 C 47.507812 119.617188 42.40625 108.035156 42.40625 108.035156 L 42.40625 82.796875 C 42.40625 82.796875 51.417969 95.363281 88.453125 82.796875 C 125.488281 70.226562 140.832031 82.796875 140.832031 82.796875 L 140.832031 108.035156 Z M 140.820312 108.035156 "/>
<path style=" stroke:none;fill-rule:nonzero;fill:rgb(6.666667%,10.980392%,20.784314%);fill-opacity:1;" d="M 157.273438 36 L 42.40625 36 L 42.40625 62.503906 L 157.273438 62.503906 Z M 157.273438 36 "/>
<path style=" stroke:none;fill-rule:nonzero;fill:rgb(6.666667%,10.980392%,20.784314%);fill-opacity:1;" d="M 56.683594 158.730469 C 64.570312 158.730469 70.960938 152.335938 70.960938 144.453125 C 70.960938 136.566406 64.570312 130.171875 56.683594 130.171875 C 48.796875 130.171875 42.40625 136.566406 42.40625 144.453125 C 42.40625 152.335938 48.796875 158.730469 56.683594 158.730469 Z M 56.683594 158.730469 "/>
</g>
</svg>
