<?xml version="1.0" encoding="UTF-8"?>
<svg xmlns="http://www.w3.org/2000/svg" xmlns:xlink="http://www.w3.org/1999/xlink" width="512px" height="512px" viewBox="0 0 512 512" version="1.1">
<g id="surface1">
<path style=" stroke:none;fill-rule:nonzero;fill:rgb(0%,100%,97.647059%);fill-opacity:1;" d="M 160 0 L 352 0 C 440.367188 0 512 71.632812 512 160 L 512 352 C 512 440.367188 440.367188 512 352 512 L 160 512 C 71.632812 512 0 440.367188 0 352 L 0 160 C 0 71.632812 71.632812 0 160 0 Z M 160 0 "/>
<path style=" stroke:none;fill-rule:nonzero;fill:rgb(6.666667%,10.980392%,20.784314%);fill-opacity:1;" d="M 375.515625 288.09375 C 375.515625 288.09375 345.003906 257.207031 235.84375 288.09375 C 126.683594 318.976562 113.082031 288.09375 113.082031 288.09375 L 113.082031 220.789062 C 113.082031 220.789062 137.113281 254.304688 235.878906 220.789062 C 334.640625 187.269531 375.550781 220.789062 375.550781 220.789062 L 375.550781 288.09375 Z M 375.515625 288.09375 "/>
<path style=" stroke:none;fill-rule:nonzero;fill:rgb(6.666667%,10.980392%,20.784314%);fill-opacity:1;" d="M 419.398438 96 L 113.082031 96 L 113.082031 166.679688 L 419.398438 166.679688 Z M 419.398438 96 "/>
<path style=" stroke:none;fill-rule:nonzero;fill:rgb(6.666667%,10.980392%,20.784314%);fill-opacity:1;" d="M 151.15625 423.277344 C 172.183594 423.277344 189.230469 406.230469 189.230469 385.203125 C 189.230469 364.175781 172.183594 347.128906 151.15625 347.128906 C 130.128906 347.128906 113.082031 364.175781 113.082031 385.203125 C 113.082031 406.230469 130.128906 423.277344 151.15625 423.277344 Z M 151.15625 423.277344 "/>
</g>
</svg>
